{"title":"Doctor Zhivago*1965*[BluRay][720p][ENG, POL]","uid":5864935,"size":10781313015,"categoryP":"video","categoryS":"hd___movies","magnet":"?xt=urn:btih:30f7e3b08f5759082481e3278fce2705d2adc68e&amp;dn=Doctor+Zhivago%2A1965%2A%5BBluRay%5D%5B720p%5D%5BENG%2C+POL%5D&amp;tr=udp%3A%2F%2Ftracker.openbittorrent.com%3A80&amp;tr=udp%3A%2F%2Fopen.demonii.com%3A1337&amp;tr=udp%3A%2F%2Ftracker.coppersurfer.tk%3A6969&amp;tr=udp%3A%2F%2Fexodus.desync.com%3A6969","seeders":0,"leechers":3,"uploader":"albedo040","files":1,"time":1286122178,"description":"Doctor Zhivago*1965*[BluRay][720p][ENG, POL]\n\nGeneral information:\nCountry: USA, Italy \nRelease: 22 December 1965\nGenre: Drama, Romance, War \nDirector: David Lean\nScreenplay: Robert Bolt, Boris Pasternak (novel)\nOriginal Music: Maurice Jarre \nCinematography by: Nicolas Roeg, Freddie Young \nDuration: 3h 15mn\nLanguage: English, Polish\nSubtitles: Polish\nRating: 7.5/10 - 2432 votes \n\nCast:\nOmar Sharif  ...  Yuri  \nJulie Christie  ...  Lara  \nGeraldine Chaplin  ...  Tonya  \nRod Steiger  ...  Komarovsky  \nAlec Guinness  ...  Yevgraf  \nTom Courtenay  ...  Pasha  \nSiobhan McKenna  ...  Anna  \nRalph Richardson  ...  Alexander  \nRita Tushingham  ...  The Girl  \nJeffrey Rockland  ...  Sasha  \nTarek Sharif  ...  Yuri at 8 years old  \nBernard Kay  ...  The Bolshevik  \nKlaus Kinski  ...  Kostoyed  \nGÃƒÂ©rard Tichy  ...  Liberius (as Gerard Tichy)  \nNoel Willman  ...  Razin  \n\nPlot:\nLife of a Russian doctor/poet who, although married, falls for a political activist's wife and experiences hardships during the Bolshevik Revolution.\n\nSpecifications:\nGeneral\nFormat                           : Matroska\nOverall bit rate                 : 7 353 Kbps\n\nVideo\nFormat                           : AVC\nFormat/Info                      : Advanced Video Codec\nFormat profile                   : &lt;a class=&quot;__cf_email__&quot; href=&quot;/cdn-cgi/l/email-protection&quot; data-cfemail=&quot;165e7f717e565a253827&quot;&gt;[email&amp;#160;protected]&lt;/a&gt;&lt;script cf-hash='f9e31' type=&quot;text/javascript&quot;&gt;\n/* &lt;![CDATA[ */!function(){try{var t=&quot;currentScript&quot;in document?document.currentScript:function(){for(var t=document.getElementsByTagName(&quot;script&quot;),e=t.length;e--;)if(t[e].getAttribute(&quot;cf-hash&quot;))return t[e]}();if(t&amp;&amp;t.previousSibling){var e,r,n,i,c=t.previousSibling,a=c.getAttribute(&quot;data-cfemail&quot;);if(a){for(e=&quot;&quot;,r=parseInt(a.substr(0,2),16),n=2;a.length-n;n+=2)i=parseInt(a.substr(n,2),16)^r,e+=String.fromCharCode(i);e=document.createTextNode(e),c.parentNode.replaceChild(e,c)}}}catch(u){}}();/* ]]&gt; */&lt;/script&gt;\nFormat settings, CABAC           : Yes\nFormat settings, ReFrames        : 4 frames\nMuxing mode                      : Container profile=&lt;a class=&quot;__cf_email__&quot; href=&quot;/cdn-cgi/l/email-protection&quot; data-cfemail=&quot;f4a19a9f9a9b839ab4c7dac5&quot;&gt;[email&amp;#160;protected]&lt;/a&gt;&lt;script cf-hash='f9e31' type=&quot;text/javascript&quot;&gt;\n/* &lt;![CDATA[ */!function(){try{var t=&quot;currentScript&quot;in document?document.currentScript:function(){for(var t=document.getElementsByTagName(&quot;script&quot;),e=t.length;e--;)if(t[e].getAttribute(&quot;cf-hash&quot;))return t[e]}();if(t&amp;&amp;t.previousSibling){var e,r,n,i,c=t.previousSibling,a=c.getAttribute(&quot;data-cfemail&quot;);if(a){for(e=&quot;&quot;,r=parseInt(a.substr(0,2),16),n=2;a.length-n;n+=2)i=parseInt(a.substr(n,2),16)^r,e+=String.fromCharCode(i);e=document.createTextNode(e),c.parentNode.replaceChild(e,c)}}}catch(u){}}();/* ]]&gt; */&lt;/script&gt;\nCodec ID                         : V_MPEG4/ISO/AVC\nBit rate                         : 5 505 Kbps\nWidth                            : 1 280 pixels\nHeight                           : 528 pixels\nDisplay aspect ratio             : 2.40:1\nFrame rate                       : 23.976 fps\n\nAudio 1\nFormat                           : DTS\nFormat/Info                      : Digital Theater Systems\nCodec ID                         : A_DTS\nBit rate mode                    : Constant\nBit rate                         : 1 510 Kbps\nChannel(s)                       : 6 channels\nChannel positions                : Front: L C R, Side: L R, LFE\nSampling rate                    : 48.0 KHz\nBit depth                        : 24 bits\nStream size                      : 2.06 GiB (21%)\nTitle                            : English_A\n\nAudio 2\nFormat                           : AC-3\nFormat/Info                      : Audio Coding 3\nFormat profile                   : Dolby Digital\nMode extension                   : CM (complete main)\nCodec ID                         : A_AC3\nBit rate mode                    : Constant\nBit rate                         : 192 Kbps\nChannel(s)                       : 2 channels\nChannel positions                : Front: L R\nSampling rate                    : 48.0 KHz\nStream size                      : 268 MiB (3%)\nTitle                            : Polish_A\n\nText\nFormat                           : UTF-8\nCodec ID                         : S_TEXT/UTF8\nCodec ID/Info                    : UTF-8 Plain Text\nLanguage                         : Polish\n","torrent":{"xt":"urn:btih:30f7e3b08f5759082481e3278fce2705d2adc68e","amp;dn":"Doctor+Zhivago%2A1965%2A%5BBluRay%5D%5B720p%5D%5BENG%2C+POL%5D","amp;tr":["udp%3A%2F%2Ftracker.openbittorrent.com%3A80","udp%3A%2F%2Fopen.demonii.com%3A1337","udp%3A%2F%2Ftracker.coppersurfer.tk%3A6969","udp%3A%2F%2Fexodus.desync.com%3A6969"],"infoHash":"30f7e3b08f5759082481e3278fce2705d2adc68e","infoHashBuffer":{"type":"Buffer","data":[48,247,227,176,143,87,89,8,36,129,227,39,143,206,39,5,210,173,198,142]},"announce":[],"urlList":[]}}